<?xml version="1.0" encoding="utf-8"?>
<!-- Generator: Adobe Illustrator 23.0.1, SVG Export Plug-In . SVG Version: 6.00 Build 0)  -->
<svg version="1.1" id="Layer_1" xmlns="http://www.w3.org/2000/svg" xmlns:xlink="http://www.w3.org/1999/xlink" x="0px" y="0px"
	 viewBox="0 0 476.22 477.07" style="enable-background:new 0 0 476.22 477.07;" xml:space="preserve">
<style type="text/css">
	.st0{fill:#222F46;}
	.st1{fill:#BF485A;}
	.st2{fill:#D7873D;}
	.st3{fill:#EFE5AB;}
	.st4{fill:#5FC247;}
	.st5{fill:#3C92F0;}
	.st6{fill:#8E47DE;}
</style>
<circle class="st0" cx="238.53" cy="238.46" r="237"/>
<path class="st1" d="M217.64,39.57c-39.41,4.11-77.83,19.9-109.65,47.37l31.14,31.14L217.64,39.57z"/>
<path class="st1" d="M73.96,124.78c-19.47,28.12-30.9,60.11-34.32,92.79l63.55-63.55L73.96,124.78z"/>
<path class="st2" d="M175.6,115.6L39.02,252.18c1.29,18.81,5.23,37.48,11.81,55.39L209.21,149.2L175.6,115.6z"/>
<path class="st2" d="M245.14,113.26l62.51-62.51c-17.91-6.58-36.58-10.53-55.39-11.81l-40.72,40.72L245.14,113.26z"/>
<path class="st3" d="M127.02,265.37l-65.76,65.76c7.36,14.06,16.51,27.42,27.44,39.77l71.93-71.93L127.02,265.37z"/>
<path class="st3" d="M196.56,263.04L370.97,88.63c-12.34-10.93-25.7-20.08-39.77-27.44L162.96,229.43L196.56,263.04z"/>
<path class="st4" d="M373.86,186.93l41.67-41.67c-7.39-14.03-16.58-27.36-27.54-39.67l-47.73,47.73L373.86,186.93z"/>
<path class="st4" d="M227.38,266.2L105.67,387.92c12.31,10.96,25.64,20.14,39.67,27.54l115.65-115.65L227.38,266.2z"/>
<rect x="271.63" y="202.81" transform="matrix(0.7071 -0.7071 0.7071 0.7071 -72.1551 278.933)" class="st4" width="57.99" height="47.52"/>
<path class="st5" d="M303.76,358.23l134.24-134.24c-1.35-18.77-5.35-37.37-11.97-55.23L270.15,324.63L303.76,358.23z"/>
<path class="st5" d="M234.22,360.56l-65.38,65.38c17.86,6.62,36.46,10.62,55.23,11.97l43.75-43.75L234.22,360.56z"/>
<path class="st6" d="M437.51,258.46L258.54,437.44c44.32-4.43,87.45-23.61,121.4-57.57C413.89,345.91,433.08,302.79,437.51,258.46z"
	/>
</svg>
